<?xml version="1.0" encoding="utf-8"?>
<!-- Generator: Adobe Illustrator 26.0.1, SVG Export Plug-In . SVG Version: 6.00 Build 0)  -->
<svg version="1.1" id="Layer_1" xmlns="http://www.w3.org/2000/svg" xmlns:xlink="http://www.w3.org/1999/xlink" x="0px" y="0px"
	 viewBox="0 0 2255.58 1850.34" style="enable-background:new 0 0 2255.58 1850.34;" xml:space="preserve">
<style type="text/css">
	.st0{fill:#212121;}
	.st1{clip-path:url(#SVGID_00000127724291870908044790000017943587386906940078_);}
	.st2{fill:#F47F20;}
	.st3{clip-path:url(#SVGID_00000130640898777514231690000013486328856272815777_);}
	.st4{clip-path:url(#SVGID_00000034780358642498794410000012540474263469375399_);}
	.st5{clip-path:url(#SVGID_00000043436333742316455020000001810498419141809044_);}
	.st6{clip-path:url(#SVGID_00000110455076884373527200000004239803124322881213_);}
	.st7{clip-path:url(#SVGID_00000014594682849275862260000014765385087563716781_);}
	.st8{clip-path:url(#SVGID_00000056424278629247642840000006331938744450784141_);}
	.st9{clip-path:url(#SVGID_00000074426157934965434880000017894863870357192847_);}
	.st10{clip-path:url(#SVGID_00000084504180500532491260000013731945051905432998_);}
	.st11{fill:#FFF200;}
</style>
<g>
	<g>
		<path class="st0" d="M904.04,919.07c7.76,0,15.07,1.48,22.07,3.66l-8.89,26.41c-4.43-1.6-9.28-2.11-14.12-2.21
			c-11.75,0.22-22.38,5.08-30.1,12.84c-8.05,8.05-12.59,17.13-12.84,28.39v67.26h-29.72V922.88h29.72v9.22
			c11.81-8.24,26.32-13.02,42.01-13.02h0.93C903.4,919.07,903.72,919.07,904.04,919.07z"/>
	</g>
	<g>
		<path class="st0" d="M1064.39,973.84c0.79,4.51,1.19,9.07,1.19,13.79v0.12v10.41H959.13c0.18,0.64,0.37,1.27,0.58,1.9
			c2.19,6.52,5.85,12.35,10.62,17.09c8.07,8.07,18.71,11.01,30.08,11.24c11.37-0.23,22.01-3.17,30.08-11.24
			c0.9-0.91,1.77-1.86,2.59-2.84l28.91,10.03c-12.69,20.12-35.12,31.9-60.67,31.9h-0.93h-0.93c-39.05,0-70.79-29.68-71.66-68.49
			v-0.83v-0.77c0.8-41.98,32.95-70.08,68.05-70.08h0.83h0.83c31.06,0,59.81,22.01,66.57,56.17
			C1064.2,972.77,1064.29,973.3,1064.39,973.84z M1033.93,972.24c-2.22-7.74-6.11-13.07-10.51-17.46
			c-6.66-6.67-17.32-10.41-26.74-10.62c-9.4,0.2-20.06,3.95-26.73,10.62c-4.39,4.39-8.28,9.71-10.51,17.46H1033.93z"/>
	</g>
	<g>
		<path class="st0" d="M1228.06,973.84c0.79,4.51,1.19,9.07,1.19,13.79v0.12v10.41h-106.45c0.18,0.64,0.37,1.27,0.58,1.9
			c2.19,6.52,5.85,12.35,10.62,17.09c8.07,8.07,18.71,11.01,30.08,11.24c11.37-0.23,22.01-3.17,30.08-11.24
			c0.9-0.91,1.77-1.86,2.59-2.84l28.91,10.03c-12.69,20.12-35.12,31.9-60.67,31.9h-0.93h-0.93c-39.05,0-70.79-29.68-71.66-68.49
			v-0.83v-0.77c0.8-41.98,32.95-70.08,68.05-70.08h0.83h0.83c31.06,0,59.81,22.01,66.57,56.17
			C1227.87,972.77,1227.97,973.3,1228.06,973.84z M1197.6,972.24c-2.22-7.74-6.11-13.07-10.51-17.46
			c-6.66-6.67-17.32-10.41-26.74-10.62c-9.4,0.2-20.06,3.95-26.73,10.62c-4.39,4.39-8.28,9.71-10.51,17.46H1197.6z"/>
	</g>
	<g>
		<path class="st0" d="M1317.82,919.07c7.76,0,15.07,1.48,22.07,3.66l-8.89,26.41c-4.43-1.6-9.28-2.11-14.12-2.21
			c-11.75,0.22-22.38,5.08-30.1,12.84c-8.05,8.05-12.59,17.13-12.84,28.39v67.26h-29.72V922.88h29.72v9.22
			c11.81-8.24,26.32-13.02,42.01-13.02h0.93C1317.19,919.07,1317.5,919.07,1317.82,919.07z"/>
	</g>
	<path class="st0" d="M770.13,922.46h29.44v131.48h-29.44v-9.15c-11.7,8.18-26.09,12.93-41.65,12.93h-0.92h-0.92
		c-39.27,0-71.1-30.26-71.1-69.52c0-39.27,31.83-69.52,71.1-69.53h0.92h0.92c15.56,0,29.93,4.75,41.65,12.93V922.46z M770.13,988.2
		c0-11.62-4.52-20.96-12.74-29.18c-7.65-7.69-18.19-12.52-29.83-12.73c-11.64,0.21-22.19,5.04-29.84,12.73
		c-8.22,8.21-12.74,17.56-12.74,29.18c0,11.62,4.52,20.96,12.74,29.18c7.65,7.69,18.19,12.52,29.84,12.73
		c11.64-0.21,22.19-5.04,29.83-12.73C765.6,1009.16,770.13,999.82,770.13,988.2z"/>
	<g>
		<path class="st0" d="M1633.07,989.21v62.98h-27.57c0,0-0.06-7.72,0-7.76c-10.07,7.1-22.4,11.32-35.64,11.35h-0.77h-0.77
			c-29.29,0-56.38-21.08-62.1-53.64c-0.73-4.18-1.11-8.41-1.11-12.8v-0.12v-59.99h27.56v59.99c0,4.98,0.52,9.24,1.43,12.92
			c1.98,8.01,5.81,13.34,10.16,17.7c6.19,6.19,16.09,9.68,24.83,9.86c8.73-0.18,18.63-3.67,24.83-9.86
			c4.35-4.35,8.18-9.69,10.15-17.7c0.91-3.69,1.43-7.94,1.43-12.92v-60h27.57V989.21L1633.07,989.21z"/>
	</g>
	<g>
		<path class="st0" d="M1730.22,928.69c7.21,0,13.99,1.37,20.48,3.4l-8.25,24.52c-4.11-1.48-8.61-1.96-13.11-2.05
			c-10.9,0.2-20.78,4.72-27.94,11.92c-7.48,7.48-11.69,15.9-11.92,26.35v62.43h-27.58V932.22h27.58v8.56
			c10.96-7.64,24.43-12.08,39-12.08h0.86C1729.63,928.69,1729.92,928.69,1730.22,928.69z"/>
	</g>
	<g>
		<path class="st0" d="M1871.08,977.3c0.73,4.18,1.11,8.41,1.11,12.8v0.11v9.67h-98.8c0.16,0.59,0.34,1.18,0.53,1.76
			c2.03,6.05,5.43,11.46,9.86,15.86c7.49,7.49,17.37,10.22,27.91,10.43c10.55-0.22,20.43-2.94,27.92-10.43
			c0.83-0.85,1.64-1.73,2.41-2.64l26.83,9.3c-11.78,18.68-32.59,29.61-56.31,29.61h-0.86h-0.86c-36.24,0-65.71-27.55-66.51-63.57
			v-0.77v-0.71c0.74-38.97,30.58-65.05,63.16-65.05h0.77h0.77c28.83,0,55.51,20.43,61.79,52.13
			C1870.9,976.31,1870.99,976.8,1871.08,977.3z M1842.8,975.82c-2.06-7.19-5.67-12.13-9.75-16.2c-6.18-6.19-16.07-9.66-24.81-9.85
			c-8.73,0.19-18.62,3.67-24.81,9.85c-4.08,4.08-7.69,9.02-9.75,16.2H1842.8z"/>
	</g>
	<g>
		<g>
			<g>
				<defs>
					<path id="SVGID_1_" d="M800.58,1111.44c0,11.27-9.14,19.85-20.42,19.85h-10.73v14.97h-8.64v-54.68h19.37
						C791.44,1091.59,800.58,1100.17,800.58,1111.44z M791.94,1111.44c0-3.29-1.28-5.82-3.61-8.15c-2.1-2.12-4.99-3.47-8.17-3.61
						h-10.73v23.51h10.73c0,0,0.01-0.01,0-0.01c3.19-0.13,6.07-1.48,8.17-3.6C790.66,1117.26,791.94,1114.73,791.94,1111.44z"/>
				</defs>
				<use xlink:href="#SVGID_1_"  style="overflow:visible;fill:#F47F20;"/>
				<clipPath id="SVGID_00000144330092696020765470000003913910016274349729_">
					<use xlink:href="#SVGID_1_"  style="overflow:visible;"/>
				</clipPath>
				<g style="clip-path:url(#SVGID_00000144330092696020765470000003913910016274349729_);">
					<rect x="702.69" y="1039.96" class="st2" width="179.07" height="179.07"/>
					<rect x="702.69" y="1039.96" class="st2" width="179.07" height="179.07"/>
				</g>
				<g style="clip-path:url(#SVGID_00000144330092696020765470000003913910016274349729_);">
					<rect x="702.69" y="1039.96" class="st2" width="179.07" height="179.07"/>
					<rect x="702.69" y="1039.96" class="st2" width="179.07" height="179.07"/>
				</g>
			</g>
		</g>
		<g>
			<g>
				<defs>
					<path id="SVGID_00000128484559016455518060000004848949971236831677_" d="M842.07,1106.57h8.89v39.69h-8.89v-2.76
						c-3.53,2.47-7.88,3.9-12.58,3.9h-0.28h-0.28c-11.86,0-21.47-9.13-21.47-20.99c0-11.86,9.61-20.99,21.47-20.99h0.28h0.28
						c4.7,0,9.04,1.43,12.58,3.91V1106.57z M842.07,1126.42c0-3.51-1.37-6.33-3.85-8.81c-2.31-2.32-5.49-3.78-9.01-3.84
						c-3.51,0.07-6.7,1.52-9.01,3.84c-2.48,2.48-3.85,5.3-3.85,8.81c0,3.51,1.37,6.33,3.85,8.81c2.31,2.32,5.49,3.78,9.01,3.84
						c3.51-0.06,6.7-1.52,9.01-3.84C840.7,1132.74,842.07,1129.92,842.07,1126.42z"/>
				</defs>
				<use xlink:href="#SVGID_00000128484559016455518060000004848949971236831677_"  style="overflow:visible;fill:#F47F20;"/>
				<clipPath id="SVGID_00000181797495807790905960000005612056097364704942_">
					<use xlink:href="#SVGID_00000128484559016455518060000004848949971236831677_"  style="overflow:visible;"/>
				</clipPath>
				<g style="clip-path:url(#SVGID_00000181797495807790905960000005612056097364704942_);">
					<rect x="702.69" y="1039.96" class="st2" width="179.07" height="179.07"/>
					<rect x="702.69" y="1039.96" class="st2" width="179.07" height="179.07"/>
				</g>
				<g style="clip-path:url(#SVGID_00000181797495807790905960000005612056097364704942_);">
					<rect x="702.69" y="1039.96" class="st2" width="179.07" height="179.07"/>
					<rect x="702.69" y="1039.96" class="st2" width="179.07" height="179.07"/>
				</g>
			</g>
		</g>
		<g>
			<g>
				<defs>
					<path id="SVGID_00000120534736634554362400000005346582104619490219_" d="M892.26,1139.03v8.38c-2.01,0-4.87,0.01-6.82-0.05
						c-5.69-0.2-10.95-3.98-13.64-9c-1.32-2.44-2.1-5.24-2.12-8.2v-15.23h-9.23v-8.34h9.23v-17.26h8.89v17.26h13.68v8.34h-13.68
						c0,0,0,15.23,0,15.23c0,0.03,0,0.06,0,0.09c0,0.69,0.08,1.37,0.22,2.01c0.33,1.4,1,2.69,1.92,3.74
						C884.03,1139.71,887.82,1138.88,892.26,1139.03z"/>
				</defs>
				<use xlink:href="#SVGID_00000120534736634554362400000005346582104619490219_"  style="overflow:visible;fill:#F47F20;"/>
				<clipPath id="SVGID_00000142855427596948366680000004424911759956311224_">
					<use xlink:href="#SVGID_00000120534736634554362400000005346582104619490219_"  style="overflow:visible;"/>
				</clipPath>
				<g style="clip-path:url(#SVGID_00000142855427596948366680000004424911759956311224_);">
					<rect x="881.76" y="1039.96" class="st2" width="179.07" height="179.07"/>
					<rect x="881.76" y="1039.96" class="st2" width="179.07" height="179.07"/>
				</g>
				<g style="clip-path:url(#SVGID_00000142855427596948366680000004424911759956311224_);">
					<rect x="702.69" y="1039.96" class="st2" width="179.07" height="179.07"/>
					<rect x="702.69" y="1039.96" class="st2" width="179.07" height="179.07"/>
				</g>
			</g>
		</g>
		<g>
			<g>
				<defs>
					<path id="SVGID_00000111910893966924665360000004146112139203724693_" d="M943.1,1126.88c0,0.01,0,0.03,0,0.04v19.34h-8.9
						v-19.34c0-1.61-0.17-2.98-0.46-4.17c-0.64-2.58-1.87-4.31-3.28-5.71c-2-2-5.2-3.12-8.02-3.18c-2.82,0.06-6.01,1.18-8.01,3.18
						c-1.41,1.41-2.64,3.13-3.28,5.71c-0.3,1.19-0.46,2.56-0.46,4.17v19.35h-8.9v-19.35v-37.61h8.9c0,0,0.02,19.77,0,19.78
						c3.25-2.29,7.23-3.65,11.51-3.66h0.25h0.25c9.46,0,18.2,6.8,20.05,17.32C942.98,1124.1,943.1,1125.46,943.1,1126.88z"/>
				</defs>
				<use xlink:href="#SVGID_00000111910893966924665360000004146112139203724693_"  style="overflow:visible;fill:#F47F20;"/>
				<clipPath id="SVGID_00000143616747752766827940000015195882253464232101_">
					<use xlink:href="#SVGID_00000111910893966924665360000004146112139203724693_"  style="overflow:visible;"/>
				</clipPath>
				<g style="clip-path:url(#SVGID_00000143616747752766827940000015195882253464232101_);">
					<rect x="881.76" y="1039.96" class="st2" width="179.07" height="179.07"/>
					<rect x="881.76" y="1039.96" class="st2" width="179.07" height="179.07"/>
				</g>
			</g>
		</g>
		<g>
			<g>
				<defs>
					<path id="SVGID_00000109731455692731270720000001732855378722435002_" d="M997.33,1106.57h9.54l-13.19,39.69h-8.9l-8.15-24.72
						l-8.15,24.72h-8.9l-13.19-39.69h9.54l8.11,24.59l8.14-24.59h8.9l8.14,24.59L997.33,1106.57z"/>
				</defs>
				<use xlink:href="#SVGID_00000109731455692731270720000001732855378722435002_"  style="overflow:visible;fill:#F47F20;"/>
				<clipPath id="SVGID_00000083797150847706546740000006539697545531773580_">
					<use xlink:href="#SVGID_00000109731455692731270720000001732855378722435002_"  style="overflow:visible;"/>
				</clipPath>
				<g style="clip-path:url(#SVGID_00000083797150847706546740000006539697545531773580_);">
					<rect x="881.76" y="1039.96" class="st2" width="179.07" height="179.07"/>
					<rect x="881.76" y="1039.96" class="st2" width="179.07" height="179.07"/>
				</g>
			</g>
		</g>
		<g>
			<g>
				<defs>
					<path id="SVGID_00000102524071584111082050000004102918731815908238_" d="M1044.94,1106.57h8.89v39.69h-8.89v-2.76
						c-3.53,2.47-7.88,3.9-12.57,3.9h-0.28h-0.28c-11.86,0-21.47-9.13-21.47-20.99c0-11.86,9.61-20.99,21.47-20.99h0.28h0.28
						c4.7,0,9.04,1.43,12.57,3.91V1106.57z M1044.94,1126.42c0-3.51-1.37-6.33-3.85-8.81c-2.31-2.32-5.49-3.78-9.01-3.84
						c-3.51,0.07-6.7,1.52-9.01,3.84c-2.48,2.48-3.85,5.3-3.85,8.81c0,3.51,1.37,6.33,3.85,8.81c2.31,2.32,5.49,3.78,9.01,3.84
						c3.51-0.06,6.7-1.52,9.01-3.84C1043.58,1132.74,1044.94,1129.92,1044.94,1126.42z"/>
				</defs>
				<use xlink:href="#SVGID_00000102524071584111082050000004102918731815908238_"  style="overflow:visible;fill:#F47F20;"/>
				<clipPath id="SVGID_00000121995488897771746250000005126910446143153316_">
					<use xlink:href="#SVGID_00000102524071584111082050000004102918731815908238_"  style="overflow:visible;"/>
				</clipPath>
				<g style="clip-path:url(#SVGID_00000121995488897771746250000005126910446143153316_);">
					<rect x="881.76" y="1039.96" class="st2" width="179.07" height="179.07"/>
					<rect x="881.76" y="1039.96" class="st2" width="179.07" height="179.07"/>
				</g>
				<g style="clip-path:url(#SVGID_00000121995488897771746250000005126910446143153316_);">
					<rect x="881.76" y="1039.96" class="st2" width="179.07" height="179.07"/>
					<rect x="881.76" y="1039.96" class="st2" width="179.07" height="179.07"/>
				</g>
			</g>
		</g>
		<g>
			<g>
				<defs>
					<path id="SVGID_00000026134549557054655650000011316815592462121110_" d="M1097.33,1106.57h9.7l-25.58,56.95h-9.78l8.21-18.21
						l-17.4-38.74h9.75l12.53,27.9L1097.33,1106.57z"/>
				</defs>
				<use xlink:href="#SVGID_00000026134549557054655650000011316815592462121110_"  style="overflow:visible;fill:#F47F20;"/>
				<clipPath id="SVGID_00000039096461167724292780000017559968448133325969_">
					<use xlink:href="#SVGID_00000026134549557054655650000011316815592462121110_"  style="overflow:visible;"/>
				</clipPath>
				<g style="clip-path:url(#SVGID_00000039096461167724292780000017559968448133325969_);">
					<rect x="1060.84" y="1039.96" class="st2" width="179.07" height="179.07"/>
					<rect x="1060.84" y="1039.96" class="st2" width="179.07" height="179.07"/>
				</g>
			</g>
		</g>
		<g>
			<g>
				<defs>
					<path id="SVGID_00000129921912281349307380000015899542570236750755_" d="M1173.32,1139.03v8.38c-2.01,0-4.87,0.01-6.82-0.05
						c-5.69-0.2-10.95-3.98-13.64-9c-1.32-2.44-2.09-5.24-2.12-8.2v-15.23h-9.23v-8.34h9.23v-17.26h8.89v17.26h13.68v8.34h-13.68
						c0,0,0,15.23,0,15.23c0,0.03,0,0.06,0,0.09c0,0.69,0.08,1.37,0.22,2.01c0.33,1.4,1,2.69,1.92,3.74
						C1165.08,1139.71,1168.88,1138.88,1173.32,1139.03z"/>
				</defs>
				<use xlink:href="#SVGID_00000129921912281349307380000015899542570236750755_"  style="overflow:visible;fill:#F47F20;"/>
				<clipPath id="SVGID_00000169546088655866465630000001616404481323573902_">
					<use xlink:href="#SVGID_00000129921912281349307380000015899542570236750755_"  style="overflow:visible;"/>
				</clipPath>
				<g style="clip-path:url(#SVGID_00000169546088655866465630000001616404481323573902_);">
					<rect x="1060.84" y="1039.96" class="st2" width="179.07" height="179.07"/>
					<rect x="1060.84" y="1039.96" class="st2" width="179.07" height="179.07"/>
				</g>
			</g>
		</g>
		<g>
			<g>
				<defs>
					<path id="SVGID_00000090263780124668214440000018413818417222070967_" d="M1222.47,1126.41c0,11.86-9.61,20.99-21.47,20.99
						h-0.28h-0.28c-11.85,0-21.46-9.13-21.46-20.99s9.61-20.99,21.46-20.99h0.28h0.28
						C1212.86,1105.43,1222.47,1114.56,1222.47,1126.41z M1213.58,1126.42c0-3.51-1.37-6.33-3.85-8.81
						c-2.31-2.32-5.49-3.78-9.01-3.84c-3.52,0.06-6.7,1.52-9.01,3.84c-2.48,2.48-3.85,5.3-3.85,8.81c0,3.51,1.37,6.33,3.85,8.81
						c2.31,2.32,5.49,3.78,9.01,3.84c3.51-0.06,6.7-1.52,9.01-3.84C1212.21,1132.74,1213.58,1129.92,1213.58,1126.42z"/>
				</defs>
				<use xlink:href="#SVGID_00000090263780124668214440000018413818417222070967_"  style="overflow:visible;fill:#F47F20;"/>
				<clipPath id="SVGID_00000142886530574448718480000017097455868388463267_">
					<use xlink:href="#SVGID_00000090263780124668214440000018413818417222070967_"  style="overflow:visible;"/>
				</clipPath>
				<g style="clip-path:url(#SVGID_00000142886530574448718480000017097455868388463267_);">
					<rect x="1057.84" y="1039.96" class="st2" width="179.07" height="179.07"/>
					<rect x="1057.84" y="1039.96" class="st2" width="179.07" height="179.07"/>
				</g>
				<g style="clip-path:url(#SVGID_00000142886530574448718480000017097455868388463267_);">
					<rect x="1057.84" y="1039.96" class="st2" width="179.07" height="179.07"/>
					<rect x="1057.84" y="1039.96" class="st2" width="179.07" height="179.07"/>
				</g>
			</g>
		</g>
		<g>
			<path class="st0" d="M1274.82,1104.74c-3.99,3.99-6.19,8.55-6.19,14.19c0,5.65,2.2,10.2,6.19,14.19
				c3.76,3.78,8.94,6.13,14.67,6.19c0,0,0.29-0.01,0.28,0c0.02,0,0.06-0.01,0.08-0.01c4.61,0,8.87-1.49,12.33-4.01
				c0,0,3.73,6.9,3.76,6.88c-4.66,3.25-10.34,5.19-16.43,5.24h-0.27c-16.15,0-29.23-12.33-29.23-28.48
				c0-16.15,13.09-28.48,29.23-28.48c0,0,0.3,0.02,0.27,0c6.09,0.05,11.77,1.99,16.43,5.24c0,0-3.77,6.87-3.76,6.88
				c-3.46-2.52-7.74-4.02-12.34-4.02h-0.06h-0.27h-0.01C1283.76,1098.61,1278.58,1100.96,1274.82,1104.74z"/>
		</g>
		<g>
			<path class="st0" d="M1345.67,1106.57h8.89v39.69h-8.89v-2.76c-3.53,2.47-7.88,3.9-12.57,3.9h-0.28h-0.28
				c-11.86,0-21.47-9.13-21.47-20.99c0-11.86,9.61-20.99,21.47-20.99h0.28h0.28c4.7,0,9.04,1.43,12.57,3.91V1106.57z
				 M1345.67,1126.42c0-3.51-1.37-6.33-3.85-8.81c-2.31-2.32-5.49-3.78-9.01-3.84c-3.52,0.07-6.7,1.52-9.01,3.84
				c-2.48,2.48-3.85,5.3-3.85,8.81c0,3.51,1.37,6.33,3.85,8.81c2.31,2.32,5.49,3.78,9.01,3.84c3.51-0.06,6.7-1.52,9.01-3.84
				C1344.31,1132.74,1345.67,1129.92,1345.67,1126.42z"/>
		</g>
		<g>
			<path class="st0" d="M1387.83,1105.43c2.33,0,4.51,0.44,6.61,1.1l-2.66,7.91c-1.33-0.48-2.78-0.63-4.23-0.66
				c-3.52,0.06-6.7,1.52-9.02,3.85c-2.41,2.41-3.77,5.13-3.85,8.5v20.14h-8.9v-39.69h8.9v2.76c3.54-2.47,7.88-3.9,12.58-3.9h0.28
				C1387.64,1105.43,1387.73,1105.43,1387.83,1105.43z"/>
		</g>
		<g>
			<path class="st0" d="M1438.79,1122.73c0.23,1.35,0.36,2.72,0.36,4.13v0.04v3.12h-31.88c0.05,0.19,0.11,0.38,0.17,0.57
				c0.66,1.95,1.75,3.7,3.18,5.12c2.42,2.42,5.6,3.3,9.01,3.37c3.41-0.07,6.59-0.95,9.01-3.37c0.27-0.27,0.53-0.56,0.78-0.85l8.66,3
				c-3.8,6.03-10.52,9.55-18.17,9.55h-0.28h-0.28c-11.69,0-21.2-8.89-21.46-20.51v-0.25v-0.23c0.24-12.57,9.87-20.99,20.38-20.99
				h0.25h0.25c9.3,0,17.91,6.59,19.94,16.82C1438.73,1122.41,1438.76,1122.57,1438.79,1122.73z M1429.67,1122.25
				c-0.66-2.32-1.83-3.91-3.15-5.23c-1.99-2-5.19-3.12-8.01-3.18c-2.81,0.06-6.01,1.18-8,3.18c-1.32,1.31-2.48,2.91-3.15,5.23
				H1429.67z"/>
		</g>
		<g>
			<path class="st0" d="M1487.81,1122.73c0.23,1.35,0.36,2.72,0.36,4.13v0.04v3.12h-31.88c0.05,0.19,0.11,0.38,0.17,0.57
				c0.66,1.95,1.75,3.7,3.18,5.12c2.42,2.42,5.6,3.3,9.01,3.37c3.41-0.07,6.59-0.95,9.01-3.37c0.27-0.27,0.53-0.56,0.78-0.85l8.66,3
				c-3.8,6.03-10.52,9.55-18.17,9.55h-0.28h-0.28c-11.69,0-21.2-8.89-21.46-20.51v-0.25v-0.23c0.24-12.57,9.87-20.99,20.38-20.99
				h0.25h0.25c9.3,0,17.91,6.59,19.93,16.82C1487.75,1122.41,1487.78,1122.57,1487.81,1122.73z M1478.68,1122.25
				c-0.66-2.32-1.83-3.91-3.15-5.23c-1.99-2-5.19-3.12-8.01-3.18c-2.81,0.06-6.01,1.18-8,3.18c-1.32,1.31-2.48,2.91-3.15,5.23
				H1478.68z"/>
		</g>
		<g>
			<path class="st0" d="M1518.82,1105.43c2.32,0,4.51,0.44,6.61,1.1l-2.66,7.91c-1.33-0.48-2.78-0.63-4.23-0.66
				c-3.52,0.06-6.7,1.52-9.02,3.85c-2.41,2.41-3.77,5.13-3.85,8.5v20.14h-8.9v-39.69h8.9v2.76c3.54-2.47,7.88-3.9,12.58-3.9h0.28
				C1518.63,1105.43,1518.73,1105.43,1518.82,1105.43z"/>
		</g>
		<g>
			<path class="st2" d="M1594.68,1144.06c-11.56,7.43-28.19,1.73-34.73-9.84l7.42-4.1c4.16,7.41,15.24,11.64,22.75,6.9
				c3.05-1.84,4.32-5.25,2.82-8.48c-2.91-5.69-10.37-5.08-15.74-6.48c-11.33-2.56-18.72-11.52-12.75-22.74
				c6.94-12.2,26.5-11.32,34.25-0.4l-6.62,4.94c-3.8-5.44-13.54-6.91-18.53-2.39c-1.65,1.55-2.58,3-2.53,5.26
				c0.09,4.17,4.52,6.51,8.16,7.48c1.97,0.51,4.24,0.71,6.26,1c3.65,0.48,7.36,1.54,10.38,3.74
				C1604.83,1125.31,1603.94,1138.39,1594.68,1144.06z"/>
		</g>
		<g>
			<path class="st2" d="M1652.06,1146.24h-8.9c0,0-0.02-2.49,0-2.5c-3.25,2.29-7.23,3.65-11.5,3.66h-0.25h-0.25
				c-9.45,0-18.19-6.8-20.04-17.31c-0.24-1.35-0.36-2.72-0.36-4.13v-0.04v-19.36h8.89v19.36c0,1.61,0.17,2.98,0.46,4.17
				c0.64,2.58,1.87,4.3,3.28,5.71c2,2,5.19,3.12,8.01,3.18c2.82-0.06,6.01-1.18,8.01-3.18c1.41-1.4,2.64-3.13,3.28-5.71
				c0.29-1.19,0.46-2.56,0.46-4.17v-19.36h8.9v19.36V1146.24z"/>
		</g>
		<g>
			<path class="st2" d="M1660.65,1126.42c0-11.86,9.61-20.99,21.46-20.99h0.28h0.28c0.01,0,0-0.02,0-0.02
				c7.65,0,14.37,4.02,18.17,10.05l-8.67,3c-0.24-0.29-0.5-0.58-0.78-0.85c-2.31-2.32-5.49-3.78-9.01-3.84
				c-3.51,0.07-6.7,1.52-9.01,3.84c-2.48,2.48-3.85,5.3-3.85,8.81c0,3.51,1.37,6.33,3.85,8.81c2.31,2.32,5.49,3.78,9.01,3.84
				c3.52-0.06,6.7-1.52,9.01-3.84c0.27-0.27,0.53-0.56,0.78-0.85c0,0,8.67,2.98,8.66,3c-3.8,6.04-10.5,10.03-18.16,10.03h-0.01
				h-0.28h-0.28C1670.26,1147.4,1660.65,1138.27,1660.65,1126.42z"/>
		</g>
		<g>
			<path class="st2" d="M1707.77,1126.42c0-11.86,9.61-20.99,21.46-20.99h0.28h0.28c0.01,0,0-0.02,0-0.02
				c7.65,0,14.37,4.02,18.17,10.05l-8.67,3c-0.24-0.29-0.5-0.58-0.78-0.85c-2.31-2.32-5.49-3.78-9.01-3.84
				c-3.51,0.07-6.7,1.52-9.01,3.84c-2.48,2.48-3.85,5.3-3.85,8.81c0,3.51,1.37,6.33,3.85,8.81c2.31,2.32,5.49,3.78,9.01,3.84
				c3.52-0.06,6.7-1.52,9.01-3.84c0.27-0.27,0.53-0.56,0.78-0.85c0,0,8.67,2.98,8.66,3c-3.8,6.04-10.5,10.03-18.16,10.03h-0.01
				h-0.28h-0.28C1717.38,1147.4,1707.77,1138.27,1707.77,1126.42z"/>
		</g>
		<g>
			<path class="st2" d="M1795.79,1122.73c0.23,1.35,0.36,2.72,0.36,4.13v0.04v3.12h-31.88c0.05,0.19,0.11,0.38,0.17,0.57
				c0.66,1.95,1.75,3.7,3.18,5.12c2.42,2.42,5.6,3.3,9.01,3.37c3.41-0.07,6.59-0.95,9.01-3.37c0.27-0.27,0.53-0.56,0.78-0.85l8.66,3
				c-3.8,6.03-10.52,9.55-18.17,9.55h-0.28h-0.28c-11.69,0-21.2-8.89-21.46-20.51v-0.25v-0.23c0.24-12.57,9.87-20.99,20.38-20.99
				h0.25h0.25c9.3,0,17.91,6.59,19.93,16.82C1795.73,1122.41,1795.76,1122.57,1795.79,1122.73z M1786.66,1122.25
				c-0.66-2.32-1.83-3.91-3.15-5.23c-1.99-2-5.19-3.12-8.01-3.18c-2.81,0.06-6.01,1.18-8,3.18c-1.32,1.31-2.48,2.91-3.15,5.23
				H1786.66z"/>
		</g>
		<g>
			<path class="st2" d="M1834.79,1140.37c-5.71,11.3-26.83,7.69-30.89-1.67l6.77-4.77c2.56,3.95,10.42,6.88,14.92,4.01
				c2.19-1.31,2.18-4.74,0.09-5.99c-2.09-1.25-6.29-1.69-8.81-2.27c-5.33-1.01-11.42-4.32-12.31-10
				c-1.28-8.64,6.7-14.39,15.74-14.24c5.37,0.09,10.59,2.48,13.48,6.36l-6.74,4.75c-1.74-2.57-5.93-3.39-9-2.99
				c-2.01,0.26-4.7,1.53-4.75,4.25c-0.04,2.5,3.88,3.56,5.78,4.04c4.08,1.04,8.69,1.13,12.21,3.63
				C1836.06,1128.68,1837.34,1135.32,1834.79,1140.37z"/>
		</g>
		<g>
			<path class="st2" d="M1873.89,1140.37c-5.71,11.3-26.83,7.69-30.89-1.67l6.77-4.77c2.56,3.95,10.42,6.88,14.92,4.01
				c2.19-1.31,2.18-4.74,0.09-5.99c-2.09-1.25-6.29-1.69-8.81-2.27c-5.33-1.01-11.42-4.32-12.31-10
				c-1.28-8.64,6.7-14.39,15.74-14.24c5.37,0.09,10.59,2.48,13.48,6.36l-6.74,4.75c-1.74-2.57-5.93-3.39-9-2.99
				c-2.01,0.26-4.7,1.53-4.75,4.25c-0.04,2.5,3.88,3.56,5.78,4.04c4.08,1.04,8.69,1.13,12.21,3.63
				C1875.16,1128.68,1876.43,1135.32,1873.89,1140.37z"/>
		</g>
		<g>
			<g>
				<rect x="1259.51" y="1159.2" class="st0" width="265.92" height="5.31"/>
			</g>
		</g>
	</g>
	<g>
		<path class="st2" d="M1460.1,1046.86c-39.82,25.58-97.09,5.96-119.6-33.88l25.54-14.12c14.32,25.5,52.48,40.09,78.33,23.74
			c10.49-6.32,14.88-18.09,9.72-29.2c-10.03-19.61-35.7-17.5-54.21-22.31c-39.02-8.83-64.45-39.69-43.91-78.32
			c23.89-42.02,91.26-38.98,117.96-1.38l-22.78,17.02c-13.08-18.72-46.63-23.8-63.82-8.24c-5.68,5.36-8.9,10.33-8.72,18.1
			c0.33,14.37,15.55,22.42,28.11,25.75c6.8,1.75,14.59,2.43,21.55,3.44c12.59,1.63,25.36,5.31,35.77,12.88
			C1495.06,982.27,1492.02,1027.33,1460.1,1046.86z"/>
	</g>
	<g>
		<polygon class="st11" points="608.89,922.46 609.76,921.59 609.76,923.33 		"/>
	</g>
	<polygon class="st2" points="695.47,760.22 705.3,798.65 698.5,810.12 712.82,818.6 721.23,804.42 709.77,797.62 699.32,756.78 	
		"/>
	<path class="st2" d="M531.03,685.83L380.41,832.39l80.23,22.85l-6-23.5c0,0,84.08-61.5,210.9-53.94l6,23.52l62.01-58.67
		L531.03,685.83z M530.99,765.12l-41.1-12.82l30.07-33.29l2.64,8.68l-18.48,20.51l25.89,8.45L530.99,765.12z M545.96,774.43
		l-8.87,1.02l7.68-75.23l10.48-1.21L545.96,774.43z M571.76,753.2l-3.46-7.79l18.02-20.43L560,716.69l-2.14-8.82l42.81,13.41
		L571.76,753.2z"/>
	<path class="st0" d="M479.22,892.08l-14.86-58.1c0,0,83.24-56.29,194.7-49.78l14.86,58.1C673.91,842.3,566.58,828.85,479.22,892.08
		z"/>
	<g>
		<path class="st2" d="M547.79,909.21c-13.95,13.94-21.64,29.85-21.64,49.58c0,19.72,7.68,35.63,21.63,49.57
			c13.12,13.19,31.25,21.42,51.26,21.63c0,0,1.03-0.04,0.96,0c0.07,0,0.2-0.04,0.27-0.04c16.09,0,30.98-5.2,43.07-14
			c0,0,13.01,24.1,13.13,24.04c-16.27,11.36-36.12,18.13-57.41,18.3h-0.94c-56.41,0-102.14-43.09-102.14-99.5
			c0-56.41,45.73-99.5,102.14-99.5c0,0,1.05,0.06,0.94,0c21.29,0.16,41.14,6.94,57.41,18.3c0,0-13.18,24-13.12,24.04
			c-12.1-8.8-27.04-14.04-43.13-14.04H600h-0.93h-0.04C579.03,887.79,560.91,896.02,547.79,909.21z"/>
	</g>
</g>
</svg>
