<?xml version="1.0" encoding="utf-8"?>
<!-- Generator: Adobe Illustrator 26.0.1, SVG Export Plug-In . SVG Version: 6.00 Build 0)  -->
<svg version="1.1" id="Layer_1" xmlns="http://www.w3.org/2000/svg" xmlns:xlink="http://www.w3.org/1999/xlink" x="0px" y="0px"
	 viewBox="0 0 2255.58 1850.34" style="enable-background:new 0 0 2255.58 1850.34;" xml:space="preserve">
<style type="text/css">
	.st0{fill:#212121;}
	.st1{clip-path:url(#SVGID_00000080191617119845533120000010834117703544136884_);}
	.st2{fill:#F47F20;}
	.st3{clip-path:url(#SVGID_00000124860203805216943400000016275368046655843005_);}
	.st4{clip-path:url(#SVGID_00000044161686983042627130000004996473141655738769_);}
	.st5{clip-path:url(#SVGID_00000134935310869602749580000012536960507075233179_);}
	.st6{clip-path:url(#SVGID_00000181770764162460277310000007453925798122130333_);}
	.st7{clip-path:url(#SVGID_00000102510761818283320620000006337081001916826042_);}
	.st8{clip-path:url(#SVGID_00000061442312874898311010000011770460635402129552_);}
	.st9{clip-path:url(#SVGID_00000178195972406498774590000018087669587360855947_);}
	.st10{clip-path:url(#SVGID_00000129173727422882422170000007442550978189832370_);}
	.st11{fill:#FFF200;}
</style>
<g>
	<g>
		<path class="st0" d="M1171.68,825.12c7.76,0,15.07,1.48,22.07,3.66l-8.89,26.41c-4.43-1.6-9.28-2.11-14.12-2.21
			c-11.75,0.22-22.38,5.08-30.1,12.84c-8.05,8.05-12.59,17.13-12.84,28.39v67.26h-29.72V828.92h29.72v9.22
			c11.81-8.24,26.32-13.02,42.01-13.02h0.93C1171.04,825.12,1171.35,825.12,1171.68,825.12z"/>
	</g>
	<g>
		<path class="st0" d="M1332.03,879.88c0.79,4.51,1.19,9.07,1.19,13.79v0.12v10.41h-106.45c0.18,0.64,0.37,1.27,0.58,1.9
			c2.19,6.52,5.85,12.35,10.62,17.09c8.07,8.07,18.71,11.01,30.08,11.24c11.37-0.23,22.01-3.17,30.08-11.24
			c0.9-0.91,1.77-1.86,2.59-2.84l28.91,10.03c-12.69,20.12-35.12,31.9-60.67,31.9h-0.93h-0.93c-39.05,0-70.79-29.68-71.66-68.49
			v-0.83v-0.77c0.8-41.98,32.95-70.08,68.05-70.08h0.83h0.83c31.06,0,59.81,22.01,66.57,56.17
			C1331.83,878.81,1331.93,879.35,1332.03,879.88z M1301.57,878.28c-2.22-7.74-6.11-13.07-10.51-17.46
			c-6.66-6.67-17.32-10.41-26.74-10.62c-9.4,0.2-20.06,3.95-26.73,10.62c-4.39,4.39-8.28,9.71-10.51,17.46H1301.57z"/>
	</g>
	<g>
		<path class="st0" d="M1495.7,879.88c0.79,4.51,1.19,9.07,1.19,13.79v0.12v10.41h-106.45c0.18,0.64,0.37,1.27,0.58,1.9
			c2.19,6.52,5.85,12.35,10.62,17.09c8.07,8.07,18.71,11.01,30.08,11.24c11.37-0.23,22.01-3.17,30.08-11.24
			c0.9-0.91,1.77-1.86,2.59-2.84l28.91,10.03c-12.69,20.12-35.12,31.9-60.67,31.9h-0.93h-0.93c-39.05,0-70.79-29.68-71.66-68.49
			v-0.83v-0.77c0.8-41.98,32.95-70.08,68.05-70.08h0.83h0.83c31.06,0,59.81,22.01,66.57,56.17
			C1495.51,878.81,1495.61,879.35,1495.7,879.88z M1465.24,878.28c-2.22-7.74-6.11-13.07-10.51-17.46
			c-6.66-6.67-17.32-10.41-26.74-10.62c-9.4,0.2-20.06,3.95-26.73,10.62c-4.39,4.39-8.28,9.71-10.51,17.46H1465.24z"/>
	</g>
	<g>
		<path class="st0" d="M1585.46,825.12c7.76,0,15.07,1.48,22.07,3.66l-8.89,26.41c-4.43-1.6-9.28-2.11-14.12-2.21
			c-11.75,0.22-22.38,5.08-30.1,12.84c-8.05,8.05-12.59,17.13-12.84,28.39v67.26h-29.72V828.92h29.72v9.22
			c11.81-8.24,26.32-13.02,42.01-13.02h0.93C1584.83,825.12,1585.14,825.12,1585.46,825.12z"/>
	</g>
	<path class="st0" d="M1037.76,828.5h29.44v131.48h-29.44v-9.15c-11.7,8.18-26.09,12.93-41.65,12.93h-0.92h-0.92
		c-39.27,0-71.1-30.26-71.1-69.52c0-39.27,31.83-69.52,71.1-69.53h0.92h0.92c15.56,0,29.93,4.75,41.65,12.93V828.5z M1037.76,894.25
		c0-11.62-4.52-20.96-12.74-29.18c-7.65-7.69-18.19-12.52-29.83-12.73c-11.64,0.21-22.19,5.04-29.84,12.73
		c-8.22,8.21-12.74,17.56-12.74,29.18c0,11.62,4.52,20.96,12.74,29.18c7.65,7.69,18.19,12.52,29.84,12.73
		c11.64-0.21,22.19-5.04,29.83-12.73C1033.24,915.21,1037.76,905.86,1037.76,894.25z"/>
	<g>
		<path class="st0" d="M1081.49,1113.34v62.98h-27.57c0,0-0.06-7.72,0-7.76c-10.07,7.1-22.4,11.32-35.64,11.35h-0.77h-0.77
			c-29.29,0-56.38-21.08-62.1-53.64c-0.73-4.18-1.11-8.41-1.11-12.8v-0.12v-59.99h27.56v59.99c0,4.98,0.52,9.24,1.43,12.92
			c1.98,8.01,5.81,13.34,10.16,17.7c6.19,6.19,16.09,9.68,24.83,9.86c8.73-0.18,18.63-3.67,24.83-9.86
			c4.35-4.35,8.18-9.69,10.15-17.7c0.91-3.69,1.43-7.94,1.43-12.92v-60h27.57V1113.34L1081.49,1113.34z"/>
	</g>
	<g>
		<path class="st0" d="M1178.64,1052.81c7.21,0,13.99,1.37,20.48,3.4l-8.25,24.52c-4.11-1.49-8.61-1.96-13.11-2.05
			c-10.9,0.2-20.78,4.72-27.94,11.92c-7.48,7.48-11.69,15.9-11.92,26.35v62.43h-27.58v-123.03h27.58v8.56
			c10.96-7.64,24.43-12.08,39-12.08h0.86C1178.05,1052.81,1178.34,1052.81,1178.64,1052.81z"/>
	</g>
	<g>
		<path class="st0" d="M1319.5,1101.43c0.73,4.18,1.11,8.41,1.11,12.8v0.11v9.67h-98.8c0.16,0.59,0.34,1.18,0.54,1.76
			c2.03,6.05,5.43,11.46,9.86,15.86c7.49,7.49,17.37,10.21,27.91,10.43c10.55-0.22,20.43-2.94,27.92-10.43
			c0.83-0.85,1.64-1.73,2.41-2.64l26.83,9.3c-11.78,18.68-32.59,29.61-56.31,29.61h-0.86h-0.86c-36.24,0-65.71-27.55-66.51-63.57
			v-0.77v-0.71c0.74-38.97,30.58-65.05,63.16-65.05h0.77h0.77c28.83,0,55.51,20.43,61.79,52.13
			C1319.32,1100.44,1319.41,1100.93,1319.5,1101.43z M1291.22,1099.94c-2.06-7.19-5.67-12.13-9.75-16.2
			c-6.18-6.19-16.07-9.66-24.81-9.85c-8.73,0.19-18.62,3.67-24.81,9.85c-4.08,4.08-7.69,9.02-9.75,16.2H1291.22z"/>
	</g>
	<g>
		<g>
			<g>
				<defs>
					<path id="SVGID_1_" d="M827.06,1220.79c0,8-6.49,14.09-14.5,14.09h-7.62v10.63h-6.13v-38.81h13.75
						C820.57,1206.7,827.06,1212.79,827.06,1220.79z M820.93,1220.79c0-2.34-0.91-4.13-2.56-5.78c-1.49-1.5-3.54-2.47-5.8-2.56
						h-7.62v16.69h7.62c0,0,0.01-0.01,0-0.01c2.26-0.09,4.31-1.05,5.8-2.55C820.02,1224.92,820.93,1223.13,820.93,1220.79z"/>
				</defs>
				<use xlink:href="#SVGID_1_"  style="overflow:visible;fill:#F47F20;"/>
				<clipPath id="SVGID_00000169515906107914260200000003664687218659234188_">
					<use xlink:href="#SVGID_1_"  style="overflow:visible;"/>
				</clipPath>
				<g style="clip-path:url(#SVGID_00000169515906107914260200000003664687218659234188_);">
					<rect x="757.58" y="1170.05" class="st2" width="127.12" height="127.12"/>
					<rect x="757.58" y="1170.05" class="st2" width="127.12" height="127.12"/>
				</g>
				<g style="clip-path:url(#SVGID_00000169515906107914260200000003664687218659234188_);">
					<rect x="757.58" y="1170.05" class="st2" width="127.12" height="127.12"/>
					<rect x="757.58" y="1170.05" class="st2" width="127.12" height="127.12"/>
				</g>
			</g>
		</g>
		<g>
			<g>
				<defs>
					<path id="SVGID_00000042007802272020817050000006085978618812080782_" d="M856.52,1217.33h6.31v28.18h-6.31v-1.96
						c-2.51,1.75-5.59,2.77-8.93,2.77h-0.2h-0.2c-8.42,0-15.24-6.48-15.24-14.9c0-8.42,6.82-14.9,15.24-14.9h0.2h0.2
						c3.33,0,6.41,1.02,8.93,2.77V1217.33z M856.52,1231.42c0-2.49-0.97-4.49-2.73-6.25c-1.64-1.65-3.9-2.68-6.39-2.73
						c-2.5,0.05-4.75,1.08-6.39,2.73c-1.76,1.76-2.73,3.76-2.73,6.25c0,2.49,0.97,4.49,2.73,6.25c1.64,1.65,3.9,2.68,6.39,2.73
						c2.5-0.05,4.75-1.08,6.39-2.73C855.55,1235.91,856.52,1233.91,856.52,1231.42z"/>
				</defs>
				<use xlink:href="#SVGID_00000042007802272020817050000006085978618812080782_"  style="overflow:visible;fill:#F47F20;"/>
				<clipPath id="SVGID_00000093170475703031643640000002609273773876223623_">
					<use xlink:href="#SVGID_00000042007802272020817050000006085978618812080782_"  style="overflow:visible;"/>
				</clipPath>
				<g style="clip-path:url(#SVGID_00000093170475703031643640000002609273773876223623_);">
					<rect x="757.58" y="1170.05" class="st2" width="127.12" height="127.12"/>
					<rect x="757.58" y="1170.05" class="st2" width="127.12" height="127.12"/>
				</g>
				<g style="clip-path:url(#SVGID_00000093170475703031643640000002609273773876223623_);">
					<rect x="757.58" y="1170.05" class="st2" width="127.12" height="127.12"/>
					<rect x="757.58" y="1170.05" class="st2" width="127.12" height="127.12"/>
				</g>
			</g>
		</g>
		<g>
			<g>
				<defs>
					<path id="SVGID_00000001622419065483036930000016410176716102119866_" d="M892.15,1240.37v5.95c-1.43,0-3.46,0.01-4.84-0.04
						c-4.04-0.14-7.77-2.83-9.68-6.39c-0.94-1.73-1.49-3.72-1.51-5.82v-10.81h-6.55v-5.92h6.55v-12.25h6.31v12.25h9.71v5.92h-9.71
						c0,0,0,10.81,0,10.81c0,0.02,0,0.04,0,0.06c0,0.49,0.05,0.97,0.16,1.43c0.23,1,0.71,1.91,1.36,2.65
						C886.3,1240.85,888.99,1240.27,892.15,1240.37z"/>
				</defs>
				<use xlink:href="#SVGID_00000001622419065483036930000016410176716102119866_"  style="overflow:visible;fill:#F47F20;"/>
				<clipPath id="SVGID_00000177458602845198691750000015703229600004267180_">
					<use xlink:href="#SVGID_00000001622419065483036930000016410176716102119866_"  style="overflow:visible;"/>
				</clipPath>
				<g style="clip-path:url(#SVGID_00000177458602845198691750000015703229600004267180_);">
					<rect x="884.69" y="1170.05" class="st2" width="127.12" height="127.12"/>
					<rect x="884.69" y="1170.05" class="st2" width="127.12" height="127.12"/>
				</g>
				<g style="clip-path:url(#SVGID_00000177458602845198691750000015703229600004267180_);">
					<rect x="757.58" y="1170.05" class="st2" width="127.12" height="127.12"/>
					<rect x="757.58" y="1170.05" class="st2" width="127.12" height="127.12"/>
				</g>
			</g>
		</g>
		<g>
			<g>
				<defs>
					<path id="SVGID_00000095341149148335794650000016965479393326225828_" d="M928.24,1231.75c0,0.01,0,0.02,0,0.03v13.73h-6.32
						v-13.73c0-1.14-0.12-2.12-0.33-2.96c-0.45-1.83-1.33-3.06-2.33-4.05c-1.42-1.42-3.69-2.22-5.69-2.26
						c-2,0.04-4.27,0.84-5.69,2.26c-1,1-1.88,2.22-2.33,4.05c-0.21,0.85-0.33,1.82-0.33,2.96v13.73h-6.32v-13.73v-26.7h6.32
						c0,0,0.01,14.04,0,14.04c2.31-1.63,5.13-2.59,8.17-2.6h0.18h0.18c6.71,0,12.92,4.83,14.23,12.29
						C928.15,1229.78,928.24,1230.74,928.24,1231.75z"/>
				</defs>
				<use xlink:href="#SVGID_00000095341149148335794650000016965479393326225828_"  style="overflow:visible;fill:#F47F20;"/>
				<clipPath id="SVGID_00000146466795461844822010000003663961620567319732_">
					<use xlink:href="#SVGID_00000095341149148335794650000016965479393326225828_"  style="overflow:visible;"/>
				</clipPath>
				<g style="clip-path:url(#SVGID_00000146466795461844822010000003663961620567319732_);">
					<rect x="884.69" y="1170.05" class="st2" width="127.12" height="127.12"/>
					<rect x="884.69" y="1170.05" class="st2" width="127.12" height="127.12"/>
				</g>
			</g>
		</g>
		<g>
			<g>
				<defs>
					<path id="SVGID_00000104677476912532435060000005230898244213844151_" d="M966.73,1217.33h6.77l-9.36,28.18h-6.32l-5.78-17.55
						l-5.78,17.55h-6.32l-9.36-28.18h6.77l5.75,17.46l5.78-17.46h6.32l5.78,17.46L966.73,1217.33z"/>
				</defs>
				<use xlink:href="#SVGID_00000104677476912532435060000005230898244213844151_"  style="overflow:visible;fill:#F47F20;"/>
				<clipPath id="SVGID_00000119098778977372977750000006739794315150542779_">
					<use xlink:href="#SVGID_00000104677476912532435060000005230898244213844151_"  style="overflow:visible;"/>
				</clipPath>
				<g style="clip-path:url(#SVGID_00000119098778977372977750000006739794315150542779_);">
					<rect x="884.69" y="1170.05" class="st2" width="127.12" height="127.12"/>
					<rect x="884.69" y="1170.05" class="st2" width="127.12" height="127.12"/>
				</g>
			</g>
		</g>
		<g>
			<g>
				<defs>
					<path id="SVGID_00000177448379162677207420000009772548288857538465_" d="M1000.53,1217.33h6.31v28.18h-6.31v-1.96
						c-2.51,1.75-5.59,2.77-8.93,2.77h-0.2h-0.2c-8.42,0-15.24-6.48-15.24-14.9c0-8.42,6.82-14.9,15.24-14.9h0.2h0.2
						c3.33,0,6.41,1.02,8.93,2.77V1217.33z M1000.53,1231.42c0-2.49-0.97-4.49-2.73-6.25c-1.64-1.65-3.9-2.68-6.39-2.73
						c-2.5,0.05-4.76,1.08-6.39,2.73c-1.76,1.76-2.73,3.76-2.73,6.25c0,2.49,0.97,4.49,2.73,6.25c1.64,1.65,3.9,2.68,6.39,2.73
						c2.5-0.05,4.75-1.08,6.39-2.73C999.56,1235.91,1000.53,1233.91,1000.53,1231.42z"/>
				</defs>
				<use xlink:href="#SVGID_00000177448379162677207420000009772548288857538465_"  style="overflow:visible;fill:#F47F20;"/>
				<clipPath id="SVGID_00000178903365827554726470000003735816690670146238_">
					<use xlink:href="#SVGID_00000177448379162677207420000009772548288857538465_"  style="overflow:visible;"/>
				</clipPath>
				<g style="clip-path:url(#SVGID_00000178903365827554726470000003735816690670146238_);">
					<rect x="884.69" y="1170.05" class="st2" width="127.12" height="127.12"/>
					<rect x="884.69" y="1170.05" class="st2" width="127.12" height="127.12"/>
				</g>
				<g style="clip-path:url(#SVGID_00000178903365827554726470000003735816690670146238_);">
					<rect x="884.69" y="1170.05" class="st2" width="127.12" height="127.12"/>
					<rect x="884.69" y="1170.05" class="st2" width="127.12" height="127.12"/>
				</g>
			</g>
		</g>
		<g>
			<g>
				<defs>
					<path id="SVGID_00000085220837474565338760000012965469189546722698_" d="M1037.72,1217.33h6.89l-18.16,40.43h-6.94l5.83-12.93
						l-12.35-27.5h6.92l8.9,19.81L1037.72,1217.33z"/>
				</defs>
				<use xlink:href="#SVGID_00000085220837474565338760000012965469189546722698_"  style="overflow:visible;fill:#F47F20;"/>
				<clipPath id="SVGID_00000049911058352177631330000013391255593373990831_">
					<use xlink:href="#SVGID_00000085220837474565338760000012965469189546722698_"  style="overflow:visible;"/>
				</clipPath>
				<g style="clip-path:url(#SVGID_00000049911058352177631330000013391255593373990831_);">
					<rect x="1011.81" y="1170.05" class="st2" width="127.12" height="127.12"/>
					<rect x="1011.81" y="1170.05" class="st2" width="127.12" height="127.12"/>
				</g>
			</g>
		</g>
		<g>
			<g>
				<defs>
					<path id="SVGID_00000015351700695572997360000016519112877863915689_" d="M1091.66,1240.37v5.95c-1.43,0-3.46,0.01-4.84-0.04
						c-4.04-0.14-7.77-2.83-9.68-6.39c-0.94-1.73-1.49-3.72-1.51-5.82v-10.81h-6.55v-5.92h6.55v-12.25h6.31v12.25h9.71v5.92h-9.71
						c0,0,0,10.81,0,10.81c0,0.02,0,0.04,0,0.06c0,0.49,0.06,0.97,0.16,1.43c0.23,1,0.71,1.91,1.36,2.65
						C1085.81,1240.85,1088.51,1240.27,1091.66,1240.37z"/>
				</defs>
				<use xlink:href="#SVGID_00000015351700695572997360000016519112877863915689_"  style="overflow:visible;fill:#F47F20;"/>
				<clipPath id="SVGID_00000096020462310182517290000015298449100123797419_">
					<use xlink:href="#SVGID_00000015351700695572997360000016519112877863915689_"  style="overflow:visible;"/>
				</clipPath>
				<g style="clip-path:url(#SVGID_00000096020462310182517290000015298449100123797419_);">
					<rect x="1011.81" y="1170.05" class="st2" width="127.12" height="127.12"/>
					<rect x="1011.81" y="1170.05" class="st2" width="127.12" height="127.12"/>
				</g>
			</g>
		</g>
		<g>
			<g>
				<defs>
					<path id="SVGID_00000057831928712100644980000008743823544061792407_" d="M1126.55,1231.42c0,8.42-6.82,14.9-15.24,14.9h-0.2
						h-0.2c-8.41,0-15.24-6.48-15.24-14.9c0-8.42,6.82-14.9,15.24-14.9h0.2h0.2C1119.73,1216.52,1126.55,1223,1126.55,1231.42z
						 M1120.24,1231.42c0-2.49-0.97-4.49-2.73-6.25c-1.64-1.65-3.9-2.68-6.39-2.73c-2.5,0.05-4.76,1.08-6.4,2.73
						c-1.76,1.76-2.73,3.76-2.73,6.25s0.97,4.49,2.73,6.25c1.64,1.65,3.9,2.68,6.4,2.73c2.5-0.05,4.75-1.08,6.39-2.73
						C1119.27,1235.91,1120.24,1233.91,1120.24,1231.42z"/>
				</defs>
				<use xlink:href="#SVGID_00000057831928712100644980000008743823544061792407_"  style="overflow:visible;fill:#F47F20;"/>
				<clipPath id="SVGID_00000072985635046746570200000008218264768832536248_">
					<use xlink:href="#SVGID_00000057831928712100644980000008743823544061792407_"  style="overflow:visible;"/>
				</clipPath>
				<g style="clip-path:url(#SVGID_00000072985635046746570200000008218264768832536248_);">
					<rect x="1009.68" y="1170.05" class="st2" width="127.12" height="127.12"/>
					<rect x="1009.68" y="1170.05" class="st2" width="127.12" height="127.12"/>
				</g>
				<g style="clip-path:url(#SVGID_00000072985635046746570200000008218264768832536248_);">
					<rect x="1009.68" y="1170.05" class="st2" width="127.12" height="127.12"/>
					<rect x="1009.68" y="1170.05" class="st2" width="127.12" height="127.12"/>
				</g>
			</g>
		</g>
		<g>
			<path class="st0" d="M1163.71,1216.03c-2.83,2.83-4.4,6.07-4.4,10.07c0,4.01,1.56,7.24,4.39,10.07
				c2.67,2.68,6.35,4.35,10.41,4.39c0,0,0.21-0.01,0.2,0c0.01,0,0.04-0.01,0.06-0.01c3.27,0,6.29-1.06,8.75-2.84
				c0,0,2.64,4.89,2.67,4.88c-3.31,2.31-7.34,3.68-11.66,3.72h-0.19c-11.46,0-20.75-8.75-20.75-20.21
				c0-11.46,9.29-20.22,20.75-20.22c0,0,0.21,0.01,0.19,0c4.33,0.03,8.36,1.41,11.66,3.72c0,0-2.68,4.88-2.67,4.88
				c-2.46-1.79-5.49-2.85-8.76-2.85h-0.04h-0.19h-0.01C1170.06,1211.68,1166.38,1213.35,1163.71,1216.03z"/>
		</g>
		<g>
			<path class="st0" d="M1214.01,1217.33h6.31v28.18h-6.31v-1.96c-2.51,1.75-5.59,2.77-8.93,2.77h-0.2h-0.2
				c-8.42,0-15.24-6.48-15.24-14.9c0-8.42,6.82-14.9,15.24-14.9h0.2h0.2c3.33,0,6.41,1.02,8.93,2.77V1217.33z M1214.01,1231.42
				c0-2.49-0.97-4.49-2.73-6.25c-1.64-1.65-3.9-2.68-6.39-2.73c-2.5,0.05-4.76,1.08-6.39,2.73c-1.76,1.76-2.73,3.76-2.73,6.25
				c0,2.49,0.97,4.49,2.73,6.25c1.64,1.65,3.9,2.68,6.39,2.73c2.5-0.05,4.75-1.08,6.39-2.73
				C1213.04,1235.91,1214.01,1233.91,1214.01,1231.42z"/>
		</g>
		<g>
			<path class="st0" d="M1243.93,1216.52c1.65,0,3.2,0.32,4.69,0.78l-1.89,5.62c-0.94-0.34-1.97-0.45-3-0.47
				c-2.5,0.05-4.76,1.08-6.4,2.73c-1.71,1.71-2.68,3.64-2.73,6.04v14.3h-6.32v-28.18h6.32v1.96c2.51-1.75,5.6-2.77,8.93-2.77h0.2
				C1243.8,1216.52,1243.86,1216.52,1243.93,1216.52z"/>
		</g>
		<g>
			<path class="st0" d="M1280.11,1228.8c0.17,0.96,0.25,1.93,0.25,2.93v0.03v2.21h-22.63c0.04,0.14,0.08,0.27,0.12,0.4
				c0.47,1.39,1.24,2.63,2.26,3.63c1.72,1.72,3.98,2.34,6.39,2.39c2.42-0.05,4.68-0.67,6.4-2.39c0.19-0.19,0.38-0.4,0.55-0.6
				l6.15,2.13c-2.7,4.28-7.47,6.78-12.9,6.78h-0.2h-0.2c-8.3,0-15.05-6.31-15.23-14.56v-0.18v-0.16c0.17-8.92,7-14.9,14.47-14.9
				h0.18h0.18c6.6,0,12.72,4.68,14.15,11.94C1280.07,1228.58,1280.09,1228.69,1280.11,1228.8z M1273.63,1228.46
				c-0.47-1.65-1.3-2.78-2.23-3.71c-1.42-1.42-3.68-2.21-5.68-2.26c-2,0.04-4.26,0.84-5.68,2.26c-0.93,0.93-1.76,2.06-2.23,3.71
				H1273.63z"/>
		</g>
		<g>
			<path class="st0" d="M1314.9,1228.8c0.17,0.96,0.25,1.93,0.25,2.93v0.03v2.21h-22.63c0.04,0.14,0.08,0.27,0.12,0.4
				c0.47,1.39,1.24,2.63,2.26,3.63c1.72,1.72,3.98,2.34,6.39,2.39c2.42-0.05,4.68-0.67,6.4-2.39c0.19-0.19,0.38-0.4,0.55-0.6
				l6.14,2.13c-2.7,4.28-7.46,6.78-12.9,6.78h-0.2h-0.2c-8.3,0-15.05-6.31-15.23-14.56v-0.18v-0.16c0.17-8.92,7-14.9,14.47-14.9
				h0.18h0.18c6.6,0,12.72,4.68,14.15,11.94C1314.86,1228.58,1314.88,1228.69,1314.9,1228.8z M1308.43,1228.46
				c-0.47-1.65-1.3-2.78-2.23-3.71c-1.42-1.42-3.68-2.21-5.68-2.26c-2,0.04-4.26,0.84-5.68,2.26c-0.93,0.93-1.76,2.06-2.23,3.71
				H1308.43z"/>
		</g>
		<g>
			<path class="st0" d="M1336.92,1216.52c1.65,0,3.2,0.32,4.69,0.78l-1.89,5.62c-0.94-0.34-1.97-0.45-3-0.47
				c-2.5,0.05-4.76,1.08-6.4,2.73c-1.71,1.71-2.68,3.64-2.73,6.04v14.3h-6.32v-28.18h6.32v1.96c2.51-1.75,5.6-2.77,8.93-2.77h0.2
				C1336.78,1216.52,1336.85,1216.52,1336.92,1216.52z"/>
		</g>
		<g>
			<path class="st2" d="M1390.77,1243.95c-8.21,5.27-20.01,1.23-24.65-6.98l5.26-2.91c2.95,5.26,10.82,8.26,16.15,4.89
				c2.16-1.3,3.07-3.73,2-6.02c-2.07-4.04-7.36-3.61-11.18-4.6c-8.04-1.82-13.29-8.18-9.05-16.14c4.92-8.66,18.81-8.03,24.31-0.29
				l-4.7,3.51c-2.69-3.86-9.61-4.91-13.16-1.7c-1.17,1.1-1.83,2.13-1.8,3.73c0.07,2.96,3.21,4.62,5.79,5.31
				c1.4,0.36,3.01,0.5,4.44,0.71c2.59,0.34,5.23,1.1,7.37,2.65C1397.97,1230.63,1397.34,1239.92,1390.77,1243.95z"/>
		</g>
		<g>
			<path class="st2" d="M1431.5,1245.5h-6.32c0,0-0.01-1.77,0-1.78c-2.31,1.63-5.13,2.59-8.16,2.6h-0.18h-0.18
				c-6.71,0-12.91-4.83-14.22-12.29c-0.17-0.96-0.25-1.93-0.25-2.93v-0.03v-13.74h6.31v13.74c0,1.14,0.12,2.11,0.33,2.96
				c0.45,1.83,1.33,3.06,2.33,4.05c1.42,1.42,3.69,2.22,5.68,2.26c2-0.04,4.27-0.84,5.69-2.26c1-1,1.87-2.22,2.32-4.05
				c0.21-0.84,0.33-1.82,0.33-2.96v-13.74h6.32v13.74V1245.5z"/>
		</g>
		<g>
			<path class="st2" d="M1437.6,1231.42c0-8.42,6.82-14.9,15.24-14.9h0.2h0.2c0,0,0-0.02,0-0.02c5.43,0,10.2,2.85,12.9,7.14
				l-6.15,2.13c-0.17-0.21-0.36-0.41-0.55-0.6c-1.64-1.65-3.9-2.68-6.39-2.73c-2.5,0.05-4.75,1.08-6.39,2.73
				c-1.76,1.76-2.73,3.76-2.73,6.25c0,2.49,0.97,4.49,2.73,6.25c1.64,1.65,3.9,2.68,6.39,2.73c2.5-0.05,4.76-1.08,6.4-2.73
				c0.19-0.19,0.38-0.4,0.55-0.6c0,0,6.16,2.11,6.15,2.13c-2.7,4.29-7.46,7.12-12.89,7.12h-0.01h-0.2h-0.2
				C1444.42,1246.32,1437.6,1239.84,1437.6,1231.42z"/>
		</g>
		<g>
			<path class="st2" d="M1471.05,1231.42c0-8.42,6.82-14.9,15.24-14.9h0.2h0.2c0,0,0-0.02,0-0.02c5.43,0,10.2,2.85,12.9,7.14
				l-6.15,2.13c-0.17-0.21-0.36-0.41-0.55-0.6c-1.64-1.65-3.9-2.68-6.39-2.73c-2.5,0.05-4.75,1.08-6.39,2.73
				c-1.76,1.76-2.73,3.76-2.73,6.25c0,2.49,0.97,4.49,2.73,6.25c1.64,1.65,3.9,2.68,6.39,2.73c2.5-0.05,4.76-1.08,6.4-2.73
				c0.19-0.19,0.38-0.4,0.55-0.6c0,0,6.16,2.11,6.15,2.13c-2.7,4.29-7.46,7.12-12.89,7.12h-0.01h-0.2h-0.2
				C1477.87,1246.32,1471.05,1239.84,1471.05,1231.42z"/>
		</g>
		<g>
			<path class="st2" d="M1533.53,1228.8c0.17,0.96,0.25,1.93,0.25,2.93v0.03v2.21h-22.63c0.04,0.14,0.08,0.27,0.12,0.4
				c0.47,1.39,1.24,2.63,2.26,3.63c1.72,1.72,3.98,2.34,6.39,2.39c2.42-0.05,4.68-0.67,6.4-2.39c0.19-0.19,0.38-0.4,0.55-0.6
				l6.15,2.13c-2.7,4.28-7.46,6.78-12.9,6.78h-0.2h-0.2c-8.3,0-15.05-6.31-15.23-14.56v-0.18v-0.16c0.17-8.92,7-14.9,14.47-14.9
				h0.18h0.18c6.6,0,12.72,4.68,14.15,11.94C1533.49,1228.58,1533.51,1228.69,1533.53,1228.8z M1527.05,1228.46
				c-0.47-1.65-1.3-2.78-2.23-3.71c-1.42-1.42-3.68-2.21-5.68-2.26c-2,0.04-4.26,0.84-5.68,2.26c-0.93,0.93-1.76,2.06-2.23,3.71
				H1527.05z"/>
		</g>
		<g>
			<path class="st2" d="M1561.22,1241.32c-4.05,8.02-19.05,5.46-21.93-1.19l4.81-3.39c1.82,2.81,7.39,4.88,10.59,2.84
				c1.55-0.93,1.55-3.37,0.07-4.25c-1.48-0.89-4.47-1.2-6.25-1.61c-3.79-0.72-8.11-3.06-8.74-7.1c-0.91-6.13,4.75-10.22,11.17-10.11
				c3.81,0.07,7.51,1.76,9.57,4.52l-4.79,3.37c-1.23-1.83-4.21-2.41-6.39-2.13c-1.42,0.18-3.34,1.08-3.37,3.02
				c-0.03,1.77,2.75,2.52,4.1,2.87c2.89,0.74,6.17,0.8,8.67,2.58C1562.12,1233.03,1563.02,1237.74,1561.22,1241.32z"/>
		</g>
		<g>
			<path class="st2" d="M1588.97,1241.32c-4.05,8.02-19.05,5.46-21.93-1.19l4.81-3.39c1.82,2.81,7.39,4.88,10.59,2.84
				c1.55-0.93,1.55-3.37,0.07-4.25s-4.47-1.2-6.25-1.61c-3.79-0.72-8.11-3.06-8.74-7.1c-0.91-6.13,4.75-10.22,11.17-10.11
				c3.81,0.07,7.51,1.76,9.57,4.52l-4.79,3.37c-1.23-1.83-4.21-2.41-6.39-2.13c-1.42,0.18-3.34,1.08-3.37,3.02
				c-0.03,1.77,2.75,2.52,4.1,2.87c2.89,0.74,6.17,0.8,8.67,2.58C1589.87,1233.03,1590.77,1237.74,1588.97,1241.32z"/>
		</g>
		<g>
			<g>
				<rect x="1152.85" y="1254.69" class="st0" width="188.76" height="3.77"/>
			</g>
		</g>
	</g>
	<g>
		<path class="st2" d="M908.52,1170.99c-39.82,25.58-97.09,5.96-119.6-33.88l25.54-14.12c14.32,25.5,52.48,40.09,78.33,23.74
			c10.49-6.32,14.88-18.09,9.72-29.2c-10.03-19.61-35.7-17.5-54.21-22.31c-39.02-8.83-64.45-39.69-43.91-78.32
			c23.89-42.02,91.26-38.98,117.96-1.38l-22.78,17.02c-13.08-18.72-46.63-23.8-63.82-8.24c-5.68,5.36-8.9,10.33-8.72,18.1
			c0.33,14.37,15.55,22.42,28.11,25.75c6.8,1.75,14.59,2.43,21.55,3.44c12.59,1.63,25.36,5.31,35.77,12.88
			C943.48,1106.4,940.44,1151.46,908.52,1170.99z"/>
	</g>
	<g>
		<polygon class="st11" points="876.53,828.5 877.4,827.63 877.4,829.37 		"/>
	</g>
	<polygon class="st2" points="963.11,666.26 972.94,704.7 966.14,716.16 980.46,724.65 988.87,710.46 977.41,703.67 966.96,662.82 	
		"/>
	<path class="st2" d="M798.67,591.88L648.04,738.44l80.23,22.85l-6-23.5c0,0,84.08-61.5,210.9-53.94l6,23.52l62.01-58.67
		L798.67,591.88z M798.63,671.17l-41.1-12.82l30.07-33.29l2.64,8.68l-18.48,20.51l25.89,8.45L798.63,671.17z M813.6,680.48
		l-8.87,1.02l7.68-75.23l10.48-1.21L813.6,680.48z M839.4,659.25l-3.46-7.79l18.02-20.43l-26.32-8.29l-2.14-8.82l42.81,13.41
		L839.4,659.25z"/>
	<path class="st0" d="M746.85,798.13L732,740.03c0,0,83.24-56.29,194.7-49.78l14.86,58.1C941.55,748.35,834.22,734.9,746.85,798.13z
		"/>
	<g>
		<path class="st2" d="M815.43,815.26c-13.95,13.94-21.64,29.85-21.64,49.58c0,19.72,7.68,35.63,21.63,49.57
			c13.12,13.19,31.25,21.42,51.26,21.63c0,0,1.03-0.04,0.96,0c0.07,0,0.2-0.04,0.27-0.04c16.09,0,30.98-5.2,43.07-14
			c0,0,13.01,24.1,13.13,24.04c-16.27,11.36-36.12,18.13-57.41,18.3h-0.94c-56.41,0-102.14-43.09-102.14-99.5
			c0-56.41,45.73-99.5,102.14-99.5c0,0,1.05,0.06,0.94,0c21.29,0.16,41.14,6.94,57.41,18.3c0,0-13.18,24-13.12,24.04
			c-12.1-8.8-27.04-14.04-43.13-14.04h-0.2h-0.93h-0.04C846.67,793.84,828.55,802.06,815.43,815.26z"/>
	</g>
</g>
</svg>
