<svg width="114" height="114" viewBox="0 0 114 114" fill="none" xmlns="http://www.w3.org/2000/svg">
<g opacity="0.2">
<path d="M36.4881 52.5441C33.6804 51.7358 30.8726 51.3256 28.1414 51.3256C23.9238 51.3256 20.4045 52.2894 17.6757 53.4697C20.3064 43.8386 26.6263 27.2202 39.2158 25.3488C40.3817 25.1754 41.3371 24.3323 41.6552 23.1975L44.4068 13.3559C44.6388 12.5236 44.5012 11.6327 44.0265 10.9104C43.5518 10.1881 42.7888 9.70623 41.9338 9.58904C41.0047 9.46228 40.0576 9.39771 39.1189 9.39771C24.0075 9.39771 9.04193 25.1706 2.72686 47.7549C-0.980142 61.0046 -2.06713 80.9245 7.06406 93.4627C12.1738 100.479 19.6284 104.225 29.2212 104.599C29.2607 104.601 29.2989 104.602 29.3384 104.602C41.1745 104.602 51.6701 96.6305 54.8629 85.2187C56.7702 78.3966 55.9081 71.242 52.433 65.068C48.9951 58.9633 43.3329 54.5136 36.4881 52.5441Z" fill="#183B56"/>
<path d="M110.578 65.0685C107.14 58.9627 101.478 54.513 94.633 52.5435C91.8253 51.7351 89.0175 51.325 86.2875 51.325C82.0699 51.325 78.5494 52.2888 75.8206 53.4691C78.4514 43.8379 84.7712 27.2196 97.3619 25.3482C98.5278 25.1748 99.482 24.3317 99.8013 23.1969L102.553 13.3553C102.785 12.523 102.647 11.6321 102.173 10.9098C101.699 10.1875 100.936 9.70562 100.08 9.58843C99.152 9.46167 98.2049 9.39709 97.265 9.39709C82.1536 9.39709 67.188 25.17 60.8718 47.7542C57.166 61.0039 56.079 80.9239 65.2114 93.4645C70.3199 100.479 77.7757 104.227 87.3673 104.6C87.4068 104.601 87.445 104.602 87.4857 104.602C99.3206 104.602 109.817 96.631 113.01 85.2193C114.915 78.3972 114.052 71.2414 110.578 65.0685Z" fill="#183B56"/>
</g>
</svg>
